<svg width="32" height="32" viewBox="0 0 32 32" fill="none" xmlns="http://www.w3.org/2000/svg">
<path opacity="0.2" fill-rule="evenodd" clip-rule="evenodd" d="M16 0C12.8355 0 9.74208 0.938364 7.11089 2.69647C4.47971 4.45457 2.42892 6.95342 1.21792 9.87704C0.00691405 12.8007 -0.309914 16.0178 0.307449 19.1214C0.924813 22.2251 2.44867 25.0761 4.68631 27.3137C6.92395 29.5514 9.77486 31.0752 12.8786 31.6926C15.9823 32.3099 19.1993 31.9931 22.1229 30.782C25.0465 29.571 27.5454 27.5203 29.3035 24.8891C31.0616 22.2579 32 19.1645 32 16C31.9952 11.758 30.3079 7.69112 27.3084 4.69158C24.3088 1.69204 20.242 0.00481224 16 0ZM16 29.8182C13.267 29.8182 10.5954 29.0078 8.32303 27.4894C6.05064 25.9711 4.27954 23.8129 3.23367 21.288C2.18781 18.7631 1.91414 15.9847 2.44732 13.3042C2.9805 10.6238 4.29655 8.16156 6.22906 6.22905C8.16156 4.29654 10.6237 2.98053 13.3042 2.44735C15.9847 1.91418 18.7631 2.1878 21.288 3.23366C23.8129 4.27953 25.971 6.05068 27.4894 8.32306C29.0078 10.5955 29.8182 13.267 29.8182 16C29.8182 19.6648 28.3624 23.1795 25.771 25.771C23.1795 28.3624 19.6648 29.8182 16 29.8182ZM21.8466 10.1237C21.6382 9.92319 21.3587 9.81361 21.0696 9.81907C20.7805 9.82452 20.5054 9.9445 20.3047 10.1527L16.168 14.4582L11.6654 10.1237C11.5633 10.0193 11.4413 9.93649 11.3067 9.88015C11.172 9.82381 11.0274 9.79505 10.8814 9.79563C10.7354 9.79621 10.591 9.82612 10.4567 9.88352C10.3225 9.94093 10.2012 10.0246 10.0999 10.1298C9.99861 10.235 9.91945 10.3594 9.86715 10.4957C9.81485 10.632 9.79044 10.7775 9.79537 10.9234C9.80031 11.0693 9.83449 11.2127 9.89587 11.3452C9.95726 11.4776 10.0446 11.5964 10.1528 11.6945L14.6247 16L10.1528 20.3055C9.94446 20.5061 9.82432 20.7811 9.81872 21.0702C9.81313 21.3593 9.92254 21.6388 10.1229 21.8473C10.2242 21.9538 10.3462 22.0383 10.4814 22.0959C10.6166 22.1534 10.7622 22.1827 10.9091 22.1818C11.1912 22.1816 11.4623 22.0721 11.6654 21.8763L16.168 17.5418L20.3047 21.8473C20.5054 22.0555 20.7805 22.1755 21.0696 22.1809C21.3587 22.1864 21.6382 22.0768 21.8466 21.8763C22.055 21.6759 22.1752 21.4009 22.1809 21.1118C22.1867 20.8227 22.0774 20.5431 21.8771 20.3345L17.7105 16L21.8771 11.6655C22.0774 11.4569 22.1867 11.1773 22.1809 10.8882C22.1752 10.5991 22.055 10.3241 21.8466 10.1237Z" fill="black"/>
</svg>
