<svg width="183" height="159" viewBox="0 0 183 159" fill="none" xmlns="http://www.w3.org/2000/svg">
<g opacity="0.25" clip-path="url(#clip0)">
<path fill-rule="evenodd" clip-rule="evenodd" d="M177.657 21.3303C175.447 12.7538 169.552 6.51637 161.446 4.17732C142.286 -1.28046 38.3842 -1.28046 19.2249 4.17732C11.1191 6.51637 5.22392 12.7538 3.01323 21.3303C-2.14504 41.6021 -2.14504 113.333 3.01323 132.825C5.22392 141.402 11.1191 147.639 19.2249 149.978C38.3842 155.436 142.286 155.436 161.446 149.978C169.552 147.639 175.447 141.402 177.657 132.825C182.816 112.553 182.816 40.8224 177.657 21.3303ZM65.6493 102.417V52.5177C65.6493 48.6193 69.3338 46.2802 72.2814 48.6193L112.811 73.5691C115.758 75.1285 115.758 79.8066 112.811 82.1456L72.2814 107.095C69.3338 108.655 65.6493 106.316 65.6493 103.197V102.417Z" fill="white"/>
</g>
<g clip-path="url(#clip1)">
<path fill-rule="evenodd" clip-rule="evenodd" d="M159.143 33.7462C157.405 27.0028 152.771 22.0985 146.398 20.2594C131.336 15.9682 49.6515 15.9682 34.5892 20.2594C28.2167 22.0985 23.5821 27.0028 21.8442 33.7462C17.7889 49.685 17.7889 106.084 21.8442 121.41C23.5821 128.153 28.2167 133.058 34.5892 134.897C49.6515 139.188 131.336 139.188 146.398 134.897C152.771 133.058 157.405 128.153 159.143 121.41C163.198 105.471 163.198 49.072 159.143 33.7462ZM71.0864 97.5016V58.2675C71.0864 55.2023 73.983 53.3632 76.3003 55.2023L108.163 74.8194C110.48 76.0455 110.48 79.7237 108.163 81.5628L76.3003 101.18C73.983 102.406 71.0864 100.567 71.0864 98.1147V97.5016Z" fill="white"/>
</g>
<defs>
<clipPath id="clip0">
<rect width="182.013" height="158.276" fill="white" transform="translate(0.0664062 0.279297)"/>
</clipPath>
<clipPath id="clip1">
<rect width="143.092" height="124.446" fill="white" transform="translate(19.5273 17.1943)"/>
</clipPath>
</defs>
</svg>
