<svg width="26" height="27" viewBox="0 0 26 27" fill="none" xmlns="http://www.w3.org/2000/svg">
<path d="M25.9218 7.79694C25.8586 6.38476 25.6388 5.42037 25.3174 4.57662C24.9911 3.69138 24.4793 2.88954 23.818 2.22677C23.1687 1.55186 22.3828 1.02938 21.5154 0.69617C20.6884 0.36843 19.7436 0.144335 18.3598 0.0801638C16.9734 0.015385 16.5305 0 13 0C9.46951 0 9.02657 0.015385 7.6402 0.0797589C6.25641 0.144335 5.3116 0.368632 4.48462 0.696575C3.61717 1.02958 2.83145 1.55186 2.18201 2.22677C1.52066 2.88934 1.00868 3.69118 0.682175 4.57642C0.361023 5.42037 0.141434 6.38476 0.0785522 7.79674C0.0150757 9.21175 0 9.66358 0 13.2665C0 16.8696 0.0150757 17.3217 0.0785522 18.7365C0.141632 20.1484 0.36142 21.1128 0.68277 21.9568C1.00908 22.8418 1.52086 23.6439 2.18221 24.3064C2.83145 24.9813 3.61737 25.5036 4.48482 25.8366C5.3116 26.1648 6.25661 26.3889 7.6404 26.4534C9.02696 26.518 9.46971 26.5332 13.0002 26.5332C16.5307 26.5332 16.9736 26.518 18.36 26.4534C19.7438 26.3889 20.6886 26.1648 21.5156 25.8366C23.2618 25.1475 24.6422 23.7388 25.3174 21.9568C25.639 21.1128 25.8586 20.1484 25.9218 18.7365C25.9849 17.3215 26 16.8696 26 13.2667C26 9.66358 25.9849 9.21175 25.9218 7.79694ZM23.5817 18.6278C23.524 19.9213 23.3122 20.6238 23.1342 21.0912C22.6968 22.2483 21.8008 23.1627 20.667 23.609C20.209 23.7906 19.5206 24.0068 18.2531 24.0657C16.8826 24.1297 16.4714 24.1431 13 24.1431C9.52843 24.1431 9.11742 24.1297 7.74672 24.0657C6.47937 24.0068 5.79105 23.7906 5.33282 23.609C4.76828 23.3963 4.25749 23.0572 3.83815 22.6165C3.40631 22.1886 3.07405 21.6675 2.86557 21.0912C2.68764 20.6238 2.47578 19.9213 2.41806 18.6278C2.35558 17.2289 2.34229 16.8093 2.34229 13.2669C2.34229 9.72431 2.35558 9.30487 2.41806 7.90585C2.47598 6.6123 2.68764 5.90985 2.86557 5.44243C3.07405 4.8661 3.40651 4.34484 3.83815 3.91689C4.25749 3.47619 4.76828 3.13712 5.33302 2.92456C5.79105 2.74278 6.47937 2.52678 7.74692 2.46767C9.11761 2.4039 9.52882 2.39034 13 2.39034H12.9998C16.471 2.39034 16.8822 2.4039 18.2531 2.46787C19.5206 2.52678 20.2088 2.74298 20.667 2.92456C21.2315 3.13732 21.7423 3.4764 22.1617 3.91689C22.5935 4.34484 22.9258 4.8661 23.134 5.44243C23.3122 5.90985 23.524 6.6123 23.5817 7.90585C23.6442 9.30467 23.6575 9.72431 23.6575 13.2667C23.6575 16.8093 23.6444 17.2287 23.5817 18.6278Z" fill="url(#paint0_linear)"/>
<path d="M12.9998 6.45508C9.31298 6.45508 6.32422 9.50574 6.32422 13.2687C6.32422 17.0316 9.31298 20.082 12.9998 20.082C16.6868 20.082 19.6755 17.0316 19.6755 13.2687C19.6755 9.50574 16.6868 6.45508 12.9998 6.45508ZM12.9998 17.6914C10.6067 17.6912 8.66651 15.7111 8.66671 13.2685C8.66671 10.826 10.6067 8.84572 13 8.84572C15.3932 8.84592 17.3333 10.826 17.3333 13.2685C17.3333 15.7111 15.393 17.6914 12.9998 17.6914Z" fill="url(#paint1_linear)"/>
<path d="M21.499 6.18467C21.499 7.06317 20.8005 7.77539 19.939 7.77539C19.0773 7.77539 18.3789 7.06317 18.3789 6.18467C18.3789 5.30597 19.0773 4.59375 19.939 4.59375C20.8005 4.59375 21.499 5.30597 21.499 6.18467Z" fill="url(#paint2_linear)"/>
<defs>
<linearGradient id="paint0_linear" x1="2.18188" y1="24.3065" x2="24.2574" y2="2.67476" gradientUnits="userSpaceOnUse">
<stop stop-color="#FFD600"/>
<stop offset="0.5" stop-color="#FF0100"/>
<stop offset="1" stop-color="#D800B9"/>
</linearGradient>
<linearGradient id="paint1_linear" x1="8.2795" y1="18.0864" x2="17.9132" y2="8.64759" gradientUnits="userSpaceOnUse">
<stop stop-color="#FF6400"/>
<stop offset="0.5" stop-color="#FF0100"/>
<stop offset="1" stop-color="#FD0056"/>
</linearGradient>
<linearGradient id="paint2_linear" x1="18.8359" y1="7.30941" x2="21.0851" y2="5.10372" gradientUnits="userSpaceOnUse">
<stop stop-color="#F30072"/>
<stop offset="1" stop-color="#E50097"/>
</linearGradient>
</defs>
</svg>
