<svg width="33" height="24" viewBox="0 0 33 24" fill="none" xmlns="http://www.w3.org/2000/svg">
<path d="M32.3201 3.68999C31.9397 2.24714 30.8251 1.10982 29.4117 0.721296C26.8293 0 16.4997 0 16.4997 0C16.4997 0 6.17035 0 3.58796 0.693801C2.20172 1.08207 1.05995 2.2474 0.679524 3.68999C0 6.32541 0 11.791 0 11.791C0 11.791 0 17.2841 0.679524 19.892C1.0602 21.3346 2.17453 22.4722 3.58821 22.8607C6.19755 23.582 16.4999 23.582 16.4999 23.582C16.4999 23.582 26.8293 23.582 29.4117 22.8882C30.8253 22.5 31.9397 21.3624 32.3203 19.9198C32.9999 17.2841 32.9999 11.8188 32.9999 11.8188C32.9999 11.8188 33.0271 6.32541 32.3201 3.68999Z" fill="#FF0000"/>
<path d="M13.2109 16.8398L21.8006 11.791L13.2109 6.74219V16.8398Z" fill="white"/>
</svg>
