<svg width="32" height="20" viewBox="0 0 32 20" fill="none" xmlns="http://www.w3.org/2000/svg">
<path d="M26.5533 10.9231C26.036 10.2564 26.184 9.95982 26.5533 9.36386C26.56 9.35706 30.8307 3.33491 31.2707 1.2926L31.2733 1.29124C31.492 0.546973 31.2733 0 30.216 0H26.7173C25.8267 0 25.416 0.469417 25.196 0.994621C25.196 0.994621 23.4147 5.34592 20.8947 8.1665C20.0813 8.98152 19.7053 9.24276 19.2613 9.24276C19.0427 9.24276 18.7027 8.98152 18.7027 8.23726V1.29124C18.7027 0.398665 18.4533 0 17.716 0H12.2147C11.656 0 11.324 0.416353 11.324 0.804133C11.324 1.65044 12.584 1.84502 12.7147 4.22612V9.39243C12.7147 10.5245 12.5133 10.7327 12.0667 10.7327C10.8773 10.7327 7.99067 6.36367 6.28 1.36335C5.93467 0.393222 5.59733 0.00136053 4.7 0.00136053H1.2C0.201333 0.00136053 0 0.470778 0 0.995981C0 1.92393 1.18933 6.53783 5.53067 12.6335C8.424 16.7943 12.4987 19.0488 16.2053 19.0488C18.4333 19.0488 18.7053 18.5481 18.7053 17.6868C18.7053 13.7111 18.504 13.3355 19.62 13.3355C20.1373 13.3355 21.028 13.5968 23.108 15.6037C25.4853 17.9835 25.876 19.0488 27.2067 19.0488H30.7053C31.7027 19.0488 32.208 18.5481 31.9173 17.5603C31.252 15.4826 26.756 11.2089 26.5533 10.9231Z" fill="#4B729F"/>
</svg>
